<?xml version="1.0" encoding="UTF-8"?>
<svg id="Layer_1" xmlns="http://www.w3.org/2000/svg" version="1.1" viewBox="0 0 200 200">
  <!-- Generator: Adobe Illustrator 30.2.1, SVG Export Plug-In . SVG Version: 2.1.1 Build 1)  -->
  <path d="M50.537,111.301c3.972,0,7.192,3.22,7.192,7.192v4.447l2.629.002.257-.033c.166-.043.321-.128.448-.247,6.534-6.164,12.238-9.593,17.316-10.167,8.802-.995,17.741.397,24,4.747l.918.675.949.702c3.168,2.233,6.704,3.623,10.647,4.181l1.329.155,21.393-.013.565.233.693.317c3.586,1.808,5.38,5.489,5.451,10.502.01.709-.008,1.387-.055,2.034,7.723-3.719,13.362-6.48,16.902-8.281l.639-.326,2.899-1.515c5.634-2.879,8.597-3.119,14.227-1.288,7.311,2.377,8.662,16.071,2.927,19.978-6.251,4.259-47.571,25.792-53.482,26.925-4.193.803-6.823.988-9.595.709l-.343-.037h0l-.349-.041-1.548-.223c-.178-.028-.536-.087-.92-.152l-.388-.065-3.443-.612c-1.653-.315-3.982-.775-6.989-1.378l-1.159-.233-33.192-6.818h-12.724v5.137c0,3.972-3.22,7.192-7.192,7.192h-28.767c-3.972,0-7.192-3.22-7.192-7.192v-49.315c0-3.972,3.22-7.192,7.192-7.192h28.767ZM50.537,117.466h-28.767c-.567,0-1.027.46-1.027,1.027v49.315c0,.567.46,1.027,1.027,1.027h28.767c.567,0,1.027-.46,1.027-1.027l.003-7.801-.028-.418c0-.142.01-.281.028-.418l-.003-40.678c0-.567-.46-1.027-1.027-1.027ZM79.071,118.62c-3.465.392-8.125,3.193-13.778,8.526-1.168,1.102-2.665,1.776-4.251,1.928l-.684.033-2.629-.002v27.403h13.029l.626.064,32.861,6.751c4.65.938,7.898,1.579,9.736,1.919l.43.079,4.127.675.864.103c2.12.213,4.171.069,7.82-.63,4.568-.875,40.938-19.741,49.845-25.126l.511-.313.816-.527c1.629-1.11.921-8.279-1.362-9.021-4.022-1.308-5.371-1.241-9.607.959l-.829.438-.883.466c-1.707.892-4.145,2.117-7.317,3.677l-1.224.601-17.016,8.209c-.437.209-.898.305-1.352.302-1.444.632-3.183.974-5.225,1.027-1.388.036-3.481.059-6.281.069l-1.083.003-20.306-.071c-1.702-.011-3.073-1.401-3.061-3.103.011-1.702,1.401-3.073,3.103-3.061,11.295.076,19.35.093,24.14.051l.694-.007,3.171-.065c3.25-.181,4.176-1.273,4.21-5.211l-.002-.683-.027-.737c-.113-1.88-.561-3.094-1.321-3.831l-.299-.255-.231-.154-20.346.002-1.343-.146c-5.759-.736-10.728-2.796-15.079-6.175-4.787-3.718-12.65-5.046-20.444-4.165ZM36.153,144.178c5.107,0,9.247,4.14,9.247,9.247s-4.14,9.247-9.247,9.247-9.247-4.14-9.247-9.247,4.14-9.247,9.247-9.247ZM36.153,150.342c-1.702,0-3.082,1.38-3.082,3.082s1.38,3.082,3.082,3.082,3.082-1.38,3.082-3.082-1.38-3.082-3.082-3.082ZM130.674,25c23.264,0,42.123,18.859,42.123,42.123s-18.859,42.123-42.123,42.123-42.123-18.859-42.123-42.123,18.859-42.123,42.123-42.123ZM130.674,31.164c-19.86,0-35.959,16.099-35.959,35.959s16.099,35.959,35.959,35.959,35.959-16.099,35.959-35.959-16.099-35.959-35.959-35.959ZM152.439,55.154c1.094,1.094,1.194,2.807.298,4.013l-.298.346-23.696,23.696c-1.094,1.094-2.807,1.194-4.013.298l-.346-.298-13.729-13.729c-1.204-1.204-1.204-3.155,0-4.359,1.094-1.094,2.807-1.194,4.013-.298l.346.298,11.55,11.549,21.516-21.516c1.204-1.204,3.155-1.204,4.359,0Z" stroke="#000" stroke-miterlimit="10"/>
</svg>