<?xml version="1.0" encoding="UTF-8"?>
<svg id="Layer_1" xmlns="http://www.w3.org/2000/svg" version="1.1" viewBox="0 0 200 200">
  <!-- Generator: Adobe Illustrator 30.2.1, SVG Export Plug-In . SVG Version: 2.1.1 Build 1)  -->
  <path d="M175,139.198v-5.638c0-2.617-2.129-4.746-4.746-4.746h-9.27c1.126-.807,2.2-1.693,3.197-2.689,9.863-9.863,9.863-25.917,0-35.78-4.759-4.778-11.1-7.415-17.858-7.422h-.026c-4.505,0-8.821,1.198-12.623,3.392-3.919-6.497-9.043-12.161-15.117-16.704,1.732-.755,2.91-2.318,2.91-4.186v-4.414c0-2.598-2.35-4.713-5.234-4.713h-7.181c2.044-8.138,4.362-22.181-1.868-28.371-3.021-2.995-7.409-3.678-13.053-2.031-5.989,1.348-9.837,3.724-12.929,5.638-3.21,1.986-5.527,3.418-9.173,3.431-1.771,0-4.258-1.712-6.263-3.086-2.767-1.901-5.377-3.698-7.786-2.24-2.344,1.426-2.422,4.922-1.823,9.726.482,3.893,1.406,9.583,2.76,16.926h-8.086c-2.884,0-5.234,2.116-5.234,4.713v4.414c0,1.868,1.178,3.431,2.91,4.186-14.641,10.989-23.507,28.359-23.507,46.853,0,32.264,26.269,58.513,58.553,58.513,12.304,0,24.244-3.913,34.094-10.963-.026.202-.065.404-.065.618v5.638c0,2.598,2.129,4.713,4.746,4.713h43.085c2.617,0,4.746-2.116,4.746-4.713v-5.625h.085c2.617,0,4.746-2.129,4.746-4.746v-5.638c0-2.598-2.129-4.713-4.746-4.713h-.091v-5.644h.091c2.617,0,4.746-2.116,4.746-4.713l.011.014ZM170.274,133.554l-.02,5.625h-43.103l.02-5.638,43.103.02v-.007ZM146.33,87.651c5.488.007,10.644,2.148,14.511,6.035,8.021,8.021,8.021,21.074,0,29.094-3.867,3.887-9.023,6.022-14.511,6.028h-.02c-5.501,0-10.67-2.142-14.557-6.035-8.021-8.021-8.021-21.074,0-29.094,3.893-3.893,9.062-6.035,14.557-6.035h.02v.006ZM60.858,38.793c-.306-2.474-.306-3.861-.234-4.616.736.404,1.732,1.094,2.474,1.602,2.669,1.836,5.703,3.919,8.951,3.919,4.993-.02,8.229-2.018,11.653-4.134,3.092-1.914,6.295-3.893,11.556-5.065.052-.013.104-.026.156-.039,3.893-1.152,6.738-.872,8.457.827,3.405,3.385,3.496,13.105.312,25.019h-40.435c-1.419-7.656-2.389-13.561-2.878-17.513h-.013ZM50.331,61.168c.085-.059.267-.137.508-.137h65.394c.241,0,.423.078.508.137v4.082c-.091.059-.267.124-.508.124H50.839c-.241,0-.417-.065-.508-.124v-4.082ZM29.734,116.466c0-18.984,10.162-36.685,26.542-46.358h54.523c7.864,4.642,14.387,11.165,19.016,18.958-.482.417-.957.827-1.413,1.283-9.863,9.863-9.863,25.917,0,35.78,1.003,1.003,2.083,1.881,3.21,2.689h-4.44c-2.617,0-4.746,2.129-4.746,4.746v5.625h-.085c-2.617,0-4.746,2.129-4.746,4.746v5.605c0,2.448,1.862,4.44,4.245,4.694-10.032,10.195-23.872,16.028-38.273,16.028-29.68,0-53.819-24.127-53.819-53.786l-.013-.009ZM165.418,170.252h-43.085l-.02.02.02-5.625h43.104l-.019,5.605ZM170.275,154.257l-.02,5.657h-43.085l-.02-.02.02-5.625h38.253c.052,0,.098-.013.15-.013h4.701ZM127.172,149.55h-4.837l-.02-.02.02-5.625,43.103.02-.02,5.625h-38.253.007ZM150.374,112.963c0-1.302-1.061-2.363-2.363-2.363h-3.431c-3.913,0-7.096-3.184-7.096-7.096,0-3.672,2.838-6.699,6.445-7.024v-1.309c0-1.309,1.061-2.363,2.363-2.363s2.363,1.061,2.363,2.363v1.276h4.082c1.309,0,2.363,1.061,2.363,2.363s-1.061,2.363-2.363,2.363h-8.164c-1.302,0-2.363,1.048-2.363,2.331s1.081,2.363,2.363,2.363h3.431c3.913,0,7.096,3.184,7.096,7.09,0,3.672-2.838,6.699-6.445,7.024v1.315c0,1.309-1.061,2.363-2.363,2.363s-2.363-1.061-2.363-2.363v-1.276h-4.082c-1.309,0-2.363-1.061-2.363-2.363s1.061-2.363,2.363-2.363h8.164c1.302,0,2.363-1.048,2.363-2.331ZM69.811,104.695c0,5.189,4.218,9.407,9.407,9.407h8.652c7.793,0,14.134,6.341,14.134,14.134s-6.341,14.134-14.134,14.134h-1.947v6.705c0,1.309-1.061,2.363-2.363,2.363s-2.363-1.061-2.363-2.363v-6.705h-13.749c-1.309,0-2.363-1.061-2.363-2.363s1.061-2.363,2.363-2.363h20.423c5.189,0,9.407-4.218,9.407-9.407s-4.218-9.407-9.407-9.407h-8.652c-7.793,0-14.134-6.341-14.134-14.134s6.341-14.134,14.134-14.134h1.979v-6.673c0-1.309,1.061-2.363,2.363-2.363s2.363,1.061,2.363,2.363v6.673h13.717c1.309,0,2.363,1.061,2.363,2.363s-1.061,2.363-2.363,2.363h-20.423c-5.189,0-9.407,4.218-9.407,9.407Z" stroke="#000" stroke-miterlimit="10"/>
</svg>