<?xml version="1.0" encoding="UTF-8"?>
<svg id="Layer_1" xmlns="http://www.w3.org/2000/svg" version="1.1" viewBox="0 0 200 200">
  <!-- Generator: Adobe Illustrator 30.2.1, SVG Export Plug-In . SVG Version: 2.1.1 Build 1)  -->
  <path d="M132.298,99.425l39.495-39.495c5.304-5.311,5.304-13.921,0-19.231l-11.172-11.172c-5.318-5.304-13.921-5.304-19.238,0l-39.49,39.495L58.677,25.806c-.51-.517-1.205-.806-1.929-.806s-1.419.289-1.929.806l-29.784,29.797c-.517.51-.806,1.205-.806,1.929s.289,1.412.806,1.929l12.729,12.715,9.244,9.237,10.229,10.222,11,10.993-28.323,28.379c-.034.034-.048.083-.083.117-.117.145-.22.303-.303.461-.096.152-.179.31-.248.482-.014.048-.055.083-.069.131l-10.325,36.885c-.227.82-.062,1.701.455,2.376.51.675,1.316,1.075,2.163,1.075.248,0,.496-.034.737-.096l36.885-10.325c.055-.014.09-.055.145-.076.165-.069.331-.152.482-.248.152-.083.296-.172.434-.276.041-.034.09-.048.124-.083l28.344-28.365,41.128,41.128c.51.517,1.205.806,1.929.806s1.419-.289,1.929-.806l29.792-29.792c.51-.51.799-1.205.799-1.929s-.289-1.412-.799-1.929l-41.134-41.12ZM145.247,33.369v.007c3.196-3.182,8.355-3.182,11.544,0l11.159,11.165c3.182,3.189,3.182,8.355,0,11.544l-9.444,9.444-22.71-22.71,9.451-9.45ZM63.101,89.809l8.596-8.266c1.088-1.04,1.123-2.762.083-3.844-1.047-1.088-2.769-1.123-3.85-.083l-8.679,8.335-6.337-6.337,14.114-13.253c.551-.489.882-1.178.916-1.915.034-.73-.234-1.446-.737-1.984s-1.199-.847-1.936-.861c-.737-.014-1.446.276-1.963.792l-14.238,13.376-5.455-5.441,8.224-7.928c1.081-1.04,1.116-2.762.076-3.844-1.047-1.081-2.769-1.116-3.85-.076l-8.3,7.99-8.954-8.948,25.94-25.947,41.301,41.294-25.947,25.947-9.003-9.01ZM35.432,165.894l7.77-27.744,19.982,19.989-27.752,7.755ZM68.391,155.644l-22.71-22.71,28.303-28.303c0-.014.034-.021.048-.034s.021-.034.034-.048l29.716-29.716c.014,0,.034-.021.048-.034s.014-.034.028-.048l28.104-28.09,22.71,22.71-86.281,86.274ZM141.714,168.436l-7.804-7.797,9.189-8.837c1.081-1.04,1.116-2.762.076-3.844-1.04-1.088-2.762-1.116-3.85-.076l-9.258,8.906-5.565-5.565,13.376-14.238c.978-1.102.902-2.783-.172-3.795-1.075-1.006-2.755-.978-3.795.069l-13.253,14.114-6.227-6.227,8.817-8.465c1.081-1.047,1.116-2.769.076-3.85-1.04-1.081-2.762-1.116-3.85-.076l-8.886,8.541-8.073-8.073,25.947-25.947,39.206,39.206-25.954,25.955Z" stroke="#000" stroke-miterlimit="10" stroke-width="2"/>
</svg>